<?xml version="1.0" standalone="no"?>
<!DOCTYPE svg PUBLIC "-//W3C//DTD SVG 1.1//EN" "http://www.w3.org/Graphics/SVG/1.1/DTD/svg11.dtd">
<svg t="1666167016720" class="icon" viewBox="0 0 1024 1024" version="1.1" xmlns="http://www.w3.org/2000/svg" p-id="13482" xmlns:xlink="http://www.w3.org/1999/xlink" width="200" height="200">
    <path d="M850.24 904.96l-569.6-308.48a96 96 0 0 1 0-168.96l569.6-308.48A96 96 0 0 1 992 203.52v616.96a96 96 0 0 1-141.76 84.48z m30.4-729.6l-569.6 308.48a32 32 0 0 0 0 56.32l569.6 308.48a32 32 0 0 0 47.36-28.16V203.52a32 32 0 0 0-47.36-28.16zM64 928a32 32 0 0 1-32-32V128a32 32 0 0 1 64 0v768a32 32 0 0 1-32 32z" p-id="13483"></path>
</svg>