<?xml version="1.0" standalone="no"?>
<!DOCTYPE svg PUBLIC "-//W3C//DTD SVG 1.1//EN" "http://www.w3.org/Graphics/SVG/1.1/DTD/svg11.dtd">
<svg t="1666167209901" class="icon" viewBox="0 0 1024 1024" version="1.1" xmlns="http://www.w3.org/2000/svg" p-id="14780" xmlns:xlink="http://www.w3.org/1999/xlink" width="200" height="200">
    <path d="M885.333333 42.666667H309.333333a53.393333 53.393333 0 0 0-53.333333 53.333333v32H181.333333a53.393333 53.393333 0 0 0-53.333333 53.333333v778.666667a21.333333 21.333333 0 0 0 32.666667 18.093333l330-206.266666 330 206.266666a21.333333 21.333333 0 0 0 32.666666-18.093333v-142.84l52.666667 32.933333a21.333333 21.333333 0 0 0 32.666667-18.093333V96a53.393333 53.393333 0 0 0-53.333334-53.333333z m-74.666666 878.84l-308.666667-192.933334a21.333333 21.333333 0 0 0-22.613333 0l-308.666667 192.933334V181.333333a10.666667 10.666667 0 0 1 10.666667-10.666666h618.666666a10.666667 10.666667 0 0 1 10.666667 10.666666z m85.333333-128l-42.666667-26.666667V181.333333a53.393333 53.393333 0 0 0-53.333333-53.333333H298.666667v-32a10.666667 10.666667 0 0 1 10.666666-10.666667h576a10.666667 10.666667 0 0 1 10.666667 10.666667z" p-id="14781"></path>
</svg>