<?xml version="1.0" standalone="no"?><!DOCTYPE svg PUBLIC "-//W3C//DTD SVG 1.1//EN" "http://www.w3.org/Graphics/SVG/1.1/DTD/svg11.dtd"><svg t="1666167021581" class="icon" viewBox="0 0 1024 1024" version="1.1" xmlns="http://www.w3.org/2000/svg" p-id="13622" xmlns:xlink="http://www.w3.org/1999/xlink" width="200" height="200"><path d="M32 820.48V203.52a96 96 0 0 1 141.76-84.48l569.6 308.48a96 96 0 0 1 0 168.96l-569.6 308.48A96 96 0 0 1 32 820.48zM96 203.52v616.96a32 32 0 0 0 47.36 28.16l569.6-308.48a32 32 0 0 0 0-56.32L143.36 175.36A32 32 0 0 0 96 203.52zM960 928a32 32 0 0 1-32-32V128a32 32 0 0 1 64 0v768a32 32 0 0 1-32 32z" p-id="13623"></path></svg>